<mxfile modified="2023-03-15T21:57:06.073Z" host="Electron" agent="5.0 (Windows NT 10.0; Win64; x64) AppleWebKit/537.36 (KHTML, like Gecko) draw.io/20.3.0 Chrome/104.0.5112.114 Electron/20.1.3 Safari/537.36" etag="u-EBeZ-RsYyj9sh8XI3i" compressed="false" version="20.3.0" type="device">
  <diagram name="Operations" id="pI4JaMz8c7eRJm9Sz2-B">
    <mxGraphModel dx="782" dy="517" grid="1" gridSize="10" guides="1" tooltips="1" connect="1" arrows="1" fold="1" page="1" pageScale="1" pageWidth="827" pageHeight="1169" math="0" shadow="0">
      <root>
        <mxCell id="1kkV1kS8Yblyq-Pat1bP-0" />
        <mxCell id="1kkV1kS8Yblyq-Pat1bP-1" parent="1kkV1kS8Yblyq-Pat1bP-0" />
        <mxCell id="1kkV1kS8Yblyq-Pat1bP-4" value="Base System Logical Module" style="rounded=1;whiteSpace=wrap;html=1;strokeWidth=1;fillColor=none;dashed=1;absoluteArcSize=1;arcSize=8;container=1;collapsible=0;recursiveResize=0;align=left;verticalAlign=top;" parent="1kkV1kS8Yblyq-Pat1bP-1" vertex="1">
          <mxGeometry x="120" y="130" width="430" height="510" as="geometry" />
        </mxCell>
        <mxCell id="1kkV1kS8Yblyq-Pat1bP-5" value="" style="fontStyle=1;align=center;verticalAlign=top;childLayout=stackLayout;horizontal=1;horizontalStack=0;resizeParent=1;resizeParentMax=0;resizeLast=0;marginBottom=0;strokeColor=#d6b656;strokeWidth=2;fillColor=none;" parent="1kkV1kS8Yblyq-Pat1bP-4" vertex="1">
          <mxGeometry x="10" y="90" width="130" height="53" as="geometry" />
        </mxCell>
        <mxCell id="1kkV1kS8Yblyq-Pat1bP-6" value="Diagnostic &lt;br&gt;Logging" style="html=1;align=left;spacingLeft=4;verticalAlign=middle;strokeColor=none;fillColor=none;fontStyle=1" parent="1kkV1kS8Yblyq-Pat1bP-5" vertex="1">
          <mxGeometry width="130" height="20" as="geometry" />
        </mxCell>
        <mxCell id="1kkV1kS8Yblyq-Pat1bP-7" value="" style="shape=ellipse;" parent="1kkV1kS8Yblyq-Pat1bP-6" vertex="1">
          <mxGeometry x="1" width="20" height="16" relative="1" as="geometry">
            <mxPoint x="-25" y="7" as="offset" />
          </mxGeometry>
        </mxCell>
        <mxCell id="1kkV1kS8Yblyq-Pat1bP-8" value="" style="line;strokeWidth=1;fillColor=none;align=left;verticalAlign=middle;spacingTop=-1;spacingLeft=3;spacingRight=3;rotatable=0;labelPosition=right;points=[];portConstraint=eastwest;" parent="1kkV1kS8Yblyq-Pat1bP-5" vertex="1">
          <mxGeometry y="20" width="130" height="8" as="geometry" />
        </mxCell>
        <mxCell id="1kkV1kS8Yblyq-Pat1bP-9" value="." style="html=1;align=center;spacingLeft=4;verticalAlign=top;strokeColor=none;fillColor=none;" parent="1kkV1kS8Yblyq-Pat1bP-5" vertex="1">
          <mxGeometry y="28" width="130" height="25" as="geometry" />
        </mxCell>
        <mxCell id="1kkV1kS8Yblyq-Pat1bP-10" value="&amp;lt;&amp;lt;actor&amp;gt;&amp;gt;&lt;br&gt;&lt;br&gt;&lt;b&gt;User&lt;/b&gt;" style="text;html=1;align=center;verticalAlign=middle;dashed=0;strokeColor=#000000;strokeWidth=2;" parent="1kkV1kS8Yblyq-Pat1bP-4" vertex="1">
          <mxGeometry x="170" y="210" width="80" height="50" as="geometry" />
        </mxCell>
        <mxCell id="1kkV1kS8Yblyq-Pat1bP-11" value="" style="fontStyle=1;align=center;verticalAlign=top;childLayout=stackLayout;horizontal=1;horizontalStack=0;resizeParent=1;resizeParentMax=0;resizeLast=0;marginBottom=0;strokeColor=#d6b656;strokeWidth=2;fillColor=none;" parent="1kkV1kS8Yblyq-Pat1bP-4" vertex="1">
          <mxGeometry x="10" y="150" width="130" height="53" as="geometry" />
        </mxCell>
        <mxCell id="1kkV1kS8Yblyq-Pat1bP-12" value="Error &lt;br&gt;Logging" style="html=1;align=left;spacingLeft=4;verticalAlign=middle;strokeColor=none;fillColor=none;fontStyle=1" parent="1kkV1kS8Yblyq-Pat1bP-11" vertex="1">
          <mxGeometry width="130" height="20" as="geometry" />
        </mxCell>
        <mxCell id="1kkV1kS8Yblyq-Pat1bP-13" value="" style="shape=ellipse;" parent="1kkV1kS8Yblyq-Pat1bP-12" vertex="1">
          <mxGeometry x="1" width="20" height="16" relative="1" as="geometry">
            <mxPoint x="-25" y="7" as="offset" />
          </mxGeometry>
        </mxCell>
        <mxCell id="1kkV1kS8Yblyq-Pat1bP-14" value="" style="line;strokeWidth=1;fillColor=none;align=left;verticalAlign=middle;spacingTop=-1;spacingLeft=3;spacingRight=3;rotatable=0;labelPosition=right;points=[];portConstraint=eastwest;" parent="1kkV1kS8Yblyq-Pat1bP-11" vertex="1">
          <mxGeometry y="20" width="130" height="8" as="geometry" />
        </mxCell>
        <mxCell id="1kkV1kS8Yblyq-Pat1bP-15" value="." style="html=1;align=center;spacingLeft=4;verticalAlign=top;strokeColor=none;fillColor=none;" parent="1kkV1kS8Yblyq-Pat1bP-11" vertex="1">
          <mxGeometry y="28" width="130" height="25" as="geometry" />
        </mxCell>
        <mxCell id="1kkV1kS8Yblyq-Pat1bP-16" value="" style="fontStyle=1;align=center;verticalAlign=top;childLayout=stackLayout;horizontal=1;horizontalStack=0;resizeParent=1;resizeParentMax=0;resizeLast=0;marginBottom=0;strokeColor=#d6b656;strokeWidth=2;fillColor=none;" parent="1kkV1kS8Yblyq-Pat1bP-4" vertex="1">
          <mxGeometry x="10" y="270" width="130" height="53" as="geometry" />
        </mxCell>
        <mxCell id="1kkV1kS8Yblyq-Pat1bP-17" value="Sessions" style="html=1;align=left;spacingLeft=4;verticalAlign=middle;strokeColor=none;fillColor=none;fontStyle=1" parent="1kkV1kS8Yblyq-Pat1bP-16" vertex="1">
          <mxGeometry width="130" height="20" as="geometry" />
        </mxCell>
        <mxCell id="1kkV1kS8Yblyq-Pat1bP-18" value="" style="shape=ellipse;" parent="1kkV1kS8Yblyq-Pat1bP-17" vertex="1">
          <mxGeometry x="1" width="20" height="16" relative="1" as="geometry">
            <mxPoint x="-25" y="7" as="offset" />
          </mxGeometry>
        </mxCell>
        <mxCell id="1kkV1kS8Yblyq-Pat1bP-19" value="" style="line;strokeWidth=1;fillColor=none;align=left;verticalAlign=middle;spacingTop=-1;spacingLeft=3;spacingRight=3;rotatable=0;labelPosition=right;points=[];portConstraint=eastwest;" parent="1kkV1kS8Yblyq-Pat1bP-16" vertex="1">
          <mxGeometry y="20" width="130" height="8" as="geometry" />
        </mxCell>
        <mxCell id="1kkV1kS8Yblyq-Pat1bP-20" value="." style="html=1;align=center;spacingLeft=4;verticalAlign=top;strokeColor=none;fillColor=none;" parent="1kkV1kS8Yblyq-Pat1bP-16" vertex="1">
          <mxGeometry y="28" width="130" height="25" as="geometry" />
        </mxCell>
        <mxCell id="1kkV1kS8Yblyq-Pat1bP-21" value="" style="fontStyle=1;align=center;verticalAlign=top;childLayout=stackLayout;horizontal=1;horizontalStack=0;resizeParent=1;resizeParentMax=0;resizeLast=0;marginBottom=0;strokeColor=#d6b656;strokeWidth=2;fillColor=none;" parent="1kkV1kS8Yblyq-Pat1bP-4" vertex="1">
          <mxGeometry x="10" y="210" width="130" height="53" as="geometry" />
        </mxCell>
        <mxCell id="1kkV1kS8Yblyq-Pat1bP-22" value="System Config" style="html=1;align=left;spacingLeft=4;verticalAlign=middle;strokeColor=none;fillColor=none;fontStyle=1" parent="1kkV1kS8Yblyq-Pat1bP-21" vertex="1">
          <mxGeometry width="130" height="20" as="geometry" />
        </mxCell>
        <mxCell id="1kkV1kS8Yblyq-Pat1bP-23" value="" style="shape=ellipse;" parent="1kkV1kS8Yblyq-Pat1bP-22" vertex="1">
          <mxGeometry x="1" width="20" height="16" relative="1" as="geometry">
            <mxPoint x="-25" y="7" as="offset" />
          </mxGeometry>
        </mxCell>
        <mxCell id="1kkV1kS8Yblyq-Pat1bP-24" value="" style="line;strokeWidth=1;fillColor=none;align=left;verticalAlign=middle;spacingTop=-1;spacingLeft=3;spacingRight=3;rotatable=0;labelPosition=right;points=[];portConstraint=eastwest;" parent="1kkV1kS8Yblyq-Pat1bP-21" vertex="1">
          <mxGeometry y="20" width="130" height="8" as="geometry" />
        </mxCell>
        <mxCell id="1kkV1kS8Yblyq-Pat1bP-25" value="." style="html=1;align=center;spacingLeft=4;verticalAlign=top;strokeColor=none;fillColor=none;" parent="1kkV1kS8Yblyq-Pat1bP-21" vertex="1">
          <mxGeometry y="28" width="130" height="25" as="geometry" />
        </mxCell>
        <mxCell id="1kkV1kS8Yblyq-Pat1bP-26" value="" style="fontStyle=1;align=center;verticalAlign=top;childLayout=stackLayout;horizontal=1;horizontalStack=0;resizeParent=1;resizeParentMax=0;resizeLast=0;marginBottom=0;strokeColor=#d6b656;strokeWidth=2;fillColor=none;" parent="1kkV1kS8Yblyq-Pat1bP-4" vertex="1">
          <mxGeometry x="290" y="390" width="130" height="53" as="geometry" />
        </mxCell>
        <mxCell id="1kkV1kS8Yblyq-Pat1bP-27" value="Sys Sponsor Info" style="html=1;align=left;spacingLeft=4;verticalAlign=middle;strokeColor=none;fillColor=none;fontStyle=1" parent="1kkV1kS8Yblyq-Pat1bP-26" vertex="1">
          <mxGeometry width="130" height="20" as="geometry" />
        </mxCell>
        <mxCell id="1kkV1kS8Yblyq-Pat1bP-28" value="" style="shape=ellipse;" parent="1kkV1kS8Yblyq-Pat1bP-27" vertex="1">
          <mxGeometry x="1" width="20" height="16" relative="1" as="geometry">
            <mxPoint x="-25" y="7" as="offset" />
          </mxGeometry>
        </mxCell>
        <mxCell id="1kkV1kS8Yblyq-Pat1bP-29" value="" style="line;strokeWidth=1;fillColor=none;align=left;verticalAlign=middle;spacingTop=-1;spacingLeft=3;spacingRight=3;rotatable=0;labelPosition=right;points=[];portConstraint=eastwest;" parent="1kkV1kS8Yblyq-Pat1bP-26" vertex="1">
          <mxGeometry y="20" width="130" height="8" as="geometry" />
        </mxCell>
        <mxCell id="1kkV1kS8Yblyq-Pat1bP-30" value="." style="html=1;align=center;spacingLeft=4;verticalAlign=top;strokeColor=none;fillColor=none;" parent="1kkV1kS8Yblyq-Pat1bP-26" vertex="1">
          <mxGeometry y="28" width="130" height="25" as="geometry" />
        </mxCell>
        <mxCell id="1kkV1kS8Yblyq-Pat1bP-31" value="" style="fontStyle=1;align=center;verticalAlign=top;childLayout=stackLayout;horizontal=1;horizontalStack=0;resizeParent=1;resizeParentMax=0;resizeLast=0;marginBottom=0;strokeColor=#d6b656;strokeWidth=2;fillColor=none;" parent="1kkV1kS8Yblyq-Pat1bP-4" vertex="1">
          <mxGeometry x="10" y="30" width="130" height="53" as="geometry" />
        </mxCell>
        <mxCell id="1kkV1kS8Yblyq-Pat1bP-32" value="Env Configuration" style="html=1;align=left;spacingLeft=4;verticalAlign=middle;strokeColor=none;fillColor=none;fontStyle=1" parent="1kkV1kS8Yblyq-Pat1bP-31" vertex="1">
          <mxGeometry width="130" height="20" as="geometry" />
        </mxCell>
        <mxCell id="1kkV1kS8Yblyq-Pat1bP-33" value="" style="shape=ellipse;" parent="1kkV1kS8Yblyq-Pat1bP-32" vertex="1">
          <mxGeometry x="1" width="20" height="16" relative="1" as="geometry">
            <mxPoint x="-25" y="7" as="offset" />
          </mxGeometry>
        </mxCell>
        <mxCell id="1kkV1kS8Yblyq-Pat1bP-34" value="" style="line;strokeWidth=1;fillColor=none;align=left;verticalAlign=middle;spacingTop=-1;spacingLeft=3;spacingRight=3;rotatable=0;labelPosition=right;points=[];portConstraint=eastwest;" parent="1kkV1kS8Yblyq-Pat1bP-31" vertex="1">
          <mxGeometry y="20" width="130" height="8" as="geometry" />
        </mxCell>
        <mxCell id="1kkV1kS8Yblyq-Pat1bP-35" value="." style="html=1;align=center;spacingLeft=4;verticalAlign=top;strokeColor=none;fillColor=none;" parent="1kkV1kS8Yblyq-Pat1bP-31" vertex="1">
          <mxGeometry y="28" width="130" height="25" as="geometry" />
        </mxCell>
        <mxCell id="1kkV1kS8Yblyq-Pat1bP-36" value="" style="fontStyle=1;align=center;verticalAlign=top;childLayout=stackLayout;horizontal=1;horizontalStack=0;resizeParent=1;resizeParentMax=0;resizeLast=0;marginBottom=0;strokeColor=#d6b656;strokeWidth=2;fillColor=none;" parent="1kkV1kS8Yblyq-Pat1bP-4" vertex="1">
          <mxGeometry x="290" y="450" width="130" height="53" as="geometry" />
        </mxCell>
        <mxCell id="1kkV1kS8Yblyq-Pat1bP-37" value="Svc Provider Info" style="html=1;align=left;spacingLeft=4;verticalAlign=middle;strokeColor=none;fillColor=none;fontStyle=1" parent="1kkV1kS8Yblyq-Pat1bP-36" vertex="1">
          <mxGeometry width="130" height="20" as="geometry" />
        </mxCell>
        <mxCell id="1kkV1kS8Yblyq-Pat1bP-38" value="" style="shape=ellipse;" parent="1kkV1kS8Yblyq-Pat1bP-37" vertex="1">
          <mxGeometry x="1" width="20" height="16" relative="1" as="geometry">
            <mxPoint x="-25" y="7" as="offset" />
          </mxGeometry>
        </mxCell>
        <mxCell id="1kkV1kS8Yblyq-Pat1bP-39" value="" style="line;strokeWidth=1;fillColor=none;align=left;verticalAlign=middle;spacingTop=-1;spacingLeft=3;spacingRight=3;rotatable=0;labelPosition=right;points=[];portConstraint=eastwest;" parent="1kkV1kS8Yblyq-Pat1bP-36" vertex="1">
          <mxGeometry y="20" width="130" height="8" as="geometry" />
        </mxCell>
        <mxCell id="1kkV1kS8Yblyq-Pat1bP-40" value="." style="html=1;align=center;spacingLeft=4;verticalAlign=top;strokeColor=none;fillColor=none;" parent="1kkV1kS8Yblyq-Pat1bP-36" vertex="1">
          <mxGeometry y="28" width="130" height="25" as="geometry" />
        </mxCell>
        <mxCell id="1kkV1kS8Yblyq-Pat1bP-41" value="" style="fontStyle=1;align=center;verticalAlign=top;childLayout=stackLayout;horizontal=1;horizontalStack=0;resizeParent=1;resizeParentMax=0;resizeLast=0;marginBottom=0;strokeColor=#d6b656;strokeWidth=2;fillColor=none;" parent="1kkV1kS8Yblyq-Pat1bP-4" vertex="1">
          <mxGeometry x="10" y="330" width="130" height="53" as="geometry" />
        </mxCell>
        <mxCell id="1kkV1kS8Yblyq-Pat1bP-42" value="Session&lt;br&gt;Operation Auditing" style="html=1;align=left;spacingLeft=4;verticalAlign=middle;strokeColor=none;fillColor=none;fontStyle=1" parent="1kkV1kS8Yblyq-Pat1bP-41" vertex="1">
          <mxGeometry width="130" height="20" as="geometry" />
        </mxCell>
        <mxCell id="1kkV1kS8Yblyq-Pat1bP-43" value="" style="shape=ellipse;" parent="1kkV1kS8Yblyq-Pat1bP-42" vertex="1">
          <mxGeometry x="1" width="20" height="16" relative="1" as="geometry">
            <mxPoint x="-25" y="7" as="offset" />
          </mxGeometry>
        </mxCell>
        <mxCell id="1kkV1kS8Yblyq-Pat1bP-44" value="" style="line;strokeWidth=1;fillColor=none;align=left;verticalAlign=middle;spacingTop=-1;spacingLeft=3;spacingRight=3;rotatable=0;labelPosition=right;points=[];portConstraint=eastwest;" parent="1kkV1kS8Yblyq-Pat1bP-41" vertex="1">
          <mxGeometry y="20" width="130" height="8" as="geometry" />
        </mxCell>
        <mxCell id="1kkV1kS8Yblyq-Pat1bP-45" value="." style="html=1;align=center;spacingLeft=4;verticalAlign=top;strokeColor=none;fillColor=none;" parent="1kkV1kS8Yblyq-Pat1bP-41" vertex="1">
          <mxGeometry y="28" width="130" height="25" as="geometry" />
        </mxCell>
        <mxCell id="1kkV1kS8Yblyq-Pat1bP-46" value="" style="fontStyle=1;align=center;verticalAlign=top;childLayout=stackLayout;horizontal=1;horizontalStack=0;resizeParent=1;resizeParentMax=0;resizeLast=0;marginBottom=0;strokeColor=#d6b656;strokeWidth=2;fillColor=none;" parent="1kkV1kS8Yblyq-Pat1bP-4" vertex="1">
          <mxGeometry x="150" y="90" width="130" height="53" as="geometry" />
        </mxCell>
        <mxCell id="1kkV1kS8Yblyq-Pat1bP-47" value="User Mgmt" style="html=1;align=left;spacingLeft=4;verticalAlign=middle;strokeColor=none;fillColor=none;fontStyle=1" parent="1kkV1kS8Yblyq-Pat1bP-46" vertex="1">
          <mxGeometry width="130" height="20" as="geometry" />
        </mxCell>
        <mxCell id="1kkV1kS8Yblyq-Pat1bP-48" value="" style="shape=ellipse;" parent="1kkV1kS8Yblyq-Pat1bP-47" vertex="1">
          <mxGeometry x="1" width="20" height="16" relative="1" as="geometry">
            <mxPoint x="-25" y="7" as="offset" />
          </mxGeometry>
        </mxCell>
        <mxCell id="1kkV1kS8Yblyq-Pat1bP-49" value="" style="line;strokeWidth=1;fillColor=none;align=left;verticalAlign=middle;spacingTop=-1;spacingLeft=3;spacingRight=3;rotatable=0;labelPosition=right;points=[];portConstraint=eastwest;" parent="1kkV1kS8Yblyq-Pat1bP-46" vertex="1">
          <mxGeometry y="20" width="130" height="8" as="geometry" />
        </mxCell>
        <mxCell id="1kkV1kS8Yblyq-Pat1bP-50" value="." style="html=1;align=center;spacingLeft=4;verticalAlign=top;strokeColor=none;fillColor=none;" parent="1kkV1kS8Yblyq-Pat1bP-46" vertex="1">
          <mxGeometry y="28" width="130" height="25" as="geometry" />
        </mxCell>
        <mxCell id="1kkV1kS8Yblyq-Pat1bP-51" value="" style="fontStyle=1;align=center;verticalAlign=top;childLayout=stackLayout;horizontal=1;horizontalStack=0;resizeParent=1;resizeParentMax=0;resizeLast=0;marginBottom=0;strokeColor=#d6b656;strokeWidth=2;fillColor=none;" parent="1kkV1kS8Yblyq-Pat1bP-4" vertex="1">
          <mxGeometry x="150" y="150" width="130" height="53" as="geometry" />
        </mxCell>
        <mxCell id="1kkV1kS8Yblyq-Pat1bP-52" value="Group Mgmt" style="html=1;align=left;spacingLeft=4;verticalAlign=middle;strokeColor=none;fillColor=none;fontStyle=1" parent="1kkV1kS8Yblyq-Pat1bP-51" vertex="1">
          <mxGeometry width="130" height="20" as="geometry" />
        </mxCell>
        <mxCell id="1kkV1kS8Yblyq-Pat1bP-53" value="" style="shape=ellipse;" parent="1kkV1kS8Yblyq-Pat1bP-52" vertex="1">
          <mxGeometry x="1" width="20" height="16" relative="1" as="geometry">
            <mxPoint x="-25" y="7" as="offset" />
          </mxGeometry>
        </mxCell>
        <mxCell id="1kkV1kS8Yblyq-Pat1bP-54" value="" style="line;strokeWidth=1;fillColor=none;align=left;verticalAlign=middle;spacingTop=-1;spacingLeft=3;spacingRight=3;rotatable=0;labelPosition=right;points=[];portConstraint=eastwest;" parent="1kkV1kS8Yblyq-Pat1bP-51" vertex="1">
          <mxGeometry y="20" width="130" height="8" as="geometry" />
        </mxCell>
        <mxCell id="1kkV1kS8Yblyq-Pat1bP-55" value="." style="html=1;align=center;spacingLeft=4;verticalAlign=top;strokeColor=none;fillColor=none;" parent="1kkV1kS8Yblyq-Pat1bP-51" vertex="1">
          <mxGeometry y="28" width="130" height="25" as="geometry" />
        </mxCell>
        <mxCell id="1kkV1kS8Yblyq-Pat1bP-56" value="" style="fontStyle=1;align=center;verticalAlign=top;childLayout=stackLayout;horizontal=1;horizontalStack=0;resizeParent=1;resizeParentMax=0;resizeLast=0;marginBottom=0;strokeColor=#d6b656;strokeWidth=2;fillColor=none;" parent="1kkV1kS8Yblyq-Pat1bP-4" vertex="1">
          <mxGeometry x="150" y="270" width="130" height="53" as="geometry" />
        </mxCell>
        <mxCell id="1kkV1kS8Yblyq-Pat1bP-57" value="Statement/Agreement&lt;br&gt;&amp;nbsp;Mgmt" style="html=1;align=left;spacingLeft=4;verticalAlign=middle;strokeColor=none;fillColor=none;fontStyle=1" parent="1kkV1kS8Yblyq-Pat1bP-56" vertex="1">
          <mxGeometry width="130" height="20" as="geometry" />
        </mxCell>
        <mxCell id="1kkV1kS8Yblyq-Pat1bP-58" value="" style="shape=ellipse;" parent="1kkV1kS8Yblyq-Pat1bP-57" vertex="1">
          <mxGeometry x="1" width="20" height="16" relative="1" as="geometry">
            <mxPoint x="-25" y="7" as="offset" />
          </mxGeometry>
        </mxCell>
        <mxCell id="1kkV1kS8Yblyq-Pat1bP-59" value="" style="line;strokeWidth=1;fillColor=none;align=left;verticalAlign=middle;spacingTop=-1;spacingLeft=3;spacingRight=3;rotatable=0;labelPosition=right;points=[];portConstraint=eastwest;" parent="1kkV1kS8Yblyq-Pat1bP-56" vertex="1">
          <mxGeometry y="20" width="130" height="8" as="geometry" />
        </mxCell>
        <mxCell id="1kkV1kS8Yblyq-Pat1bP-60" value="." style="html=1;align=center;spacingLeft=4;verticalAlign=top;strokeColor=none;fillColor=none;" parent="1kkV1kS8Yblyq-Pat1bP-56" vertex="1">
          <mxGeometry y="28" width="130" height="25" as="geometry" />
        </mxCell>
        <mxCell id="1kkV1kS8Yblyq-Pat1bP-61" value="" style="fontStyle=1;align=center;verticalAlign=top;childLayout=stackLayout;horizontal=1;horizontalStack=0;resizeParent=1;resizeParentMax=0;resizeLast=0;marginBottom=0;strokeColor=#d6b656;strokeWidth=2;fillColor=none;" parent="1kkV1kS8Yblyq-Pat1bP-4" vertex="1">
          <mxGeometry x="290" y="90" width="130" height="53" as="geometry" />
        </mxCell>
        <mxCell id="1kkV1kS8Yblyq-Pat1bP-62" value="Group Profile Mgmt" style="html=1;align=left;spacingLeft=4;verticalAlign=middle;strokeColor=none;fillColor=none;fontStyle=1" parent="1kkV1kS8Yblyq-Pat1bP-61" vertex="1">
          <mxGeometry width="130" height="20" as="geometry" />
        </mxCell>
        <mxCell id="1kkV1kS8Yblyq-Pat1bP-63" value="" style="shape=ellipse;" parent="1kkV1kS8Yblyq-Pat1bP-62" vertex="1">
          <mxGeometry x="1" width="20" height="16" relative="1" as="geometry">
            <mxPoint x="-25" y="7" as="offset" />
          </mxGeometry>
        </mxCell>
        <mxCell id="1kkV1kS8Yblyq-Pat1bP-64" value="" style="line;strokeWidth=1;fillColor=none;align=left;verticalAlign=middle;spacingTop=-1;spacingLeft=3;spacingRight=3;rotatable=0;labelPosition=right;points=[];portConstraint=eastwest;" parent="1kkV1kS8Yblyq-Pat1bP-61" vertex="1">
          <mxGeometry y="20" width="130" height="8" as="geometry" />
        </mxCell>
        <mxCell id="1kkV1kS8Yblyq-Pat1bP-65" value="." style="html=1;align=center;spacingLeft=4;verticalAlign=top;strokeColor=none;fillColor=none;" parent="1kkV1kS8Yblyq-Pat1bP-61" vertex="1">
          <mxGeometry y="28" width="130" height="25" as="geometry" />
        </mxCell>
        <mxCell id="1kkV1kS8Yblyq-Pat1bP-66" value="" style="fontStyle=1;align=center;verticalAlign=top;childLayout=stackLayout;horizontal=1;horizontalStack=0;resizeParent=1;resizeParentMax=0;resizeLast=0;marginBottom=0;strokeColor=#d6b656;strokeWidth=2;fillColor=none;" parent="1kkV1kS8Yblyq-Pat1bP-4" vertex="1">
          <mxGeometry x="290" y="30" width="130" height="53" as="geometry" />
        </mxCell>
        <mxCell id="1kkV1kS8Yblyq-Pat1bP-67" value="User Profile Mgmt" style="html=1;align=left;spacingLeft=4;verticalAlign=middle;strokeColor=none;fillColor=none;fontStyle=1" parent="1kkV1kS8Yblyq-Pat1bP-66" vertex="1">
          <mxGeometry width="130" height="20" as="geometry" />
        </mxCell>
        <mxCell id="1kkV1kS8Yblyq-Pat1bP-68" value="" style="shape=ellipse;" parent="1kkV1kS8Yblyq-Pat1bP-67" vertex="1">
          <mxGeometry x="1" width="20" height="16" relative="1" as="geometry">
            <mxPoint x="-25" y="7" as="offset" />
          </mxGeometry>
        </mxCell>
        <mxCell id="1kkV1kS8Yblyq-Pat1bP-69" value="" style="line;strokeWidth=1;fillColor=none;align=left;verticalAlign=middle;spacingTop=-1;spacingLeft=3;spacingRight=3;rotatable=0;labelPosition=right;points=[];portConstraint=eastwest;" parent="1kkV1kS8Yblyq-Pat1bP-66" vertex="1">
          <mxGeometry y="20" width="130" height="8" as="geometry" />
        </mxCell>
        <mxCell id="1kkV1kS8Yblyq-Pat1bP-70" value="." style="html=1;align=center;spacingLeft=4;verticalAlign=top;strokeColor=none;fillColor=none;" parent="1kkV1kS8Yblyq-Pat1bP-66" vertex="1">
          <mxGeometry y="28" width="130" height="25" as="geometry" />
        </mxCell>
        <mxCell id="1kkV1kS8Yblyq-Pat1bP-71" value="" style="fontStyle=1;align=center;verticalAlign=top;childLayout=stackLayout;horizontal=1;horizontalStack=0;resizeParent=1;resizeParentMax=0;resizeLast=0;marginBottom=0;strokeColor=#d6b656;strokeWidth=2;fillColor=none;" parent="1kkV1kS8Yblyq-Pat1bP-4" vertex="1">
          <mxGeometry x="290" y="150" width="130" height="53" as="geometry" />
        </mxCell>
        <mxCell id="1kkV1kS8Yblyq-Pat1bP-72" value="Org Profile Mgmt" style="html=1;align=left;spacingLeft=4;verticalAlign=middle;strokeColor=none;fillColor=none;fontStyle=1" parent="1kkV1kS8Yblyq-Pat1bP-71" vertex="1">
          <mxGeometry width="130" height="20" as="geometry" />
        </mxCell>
        <mxCell id="1kkV1kS8Yblyq-Pat1bP-73" value="" style="shape=ellipse;" parent="1kkV1kS8Yblyq-Pat1bP-72" vertex="1">
          <mxGeometry x="1" width="20" height="16" relative="1" as="geometry">
            <mxPoint x="-25" y="7" as="offset" />
          </mxGeometry>
        </mxCell>
        <mxCell id="1kkV1kS8Yblyq-Pat1bP-74" value="" style="line;strokeWidth=1;fillColor=none;align=left;verticalAlign=middle;spacingTop=-1;spacingLeft=3;spacingRight=3;rotatable=0;labelPosition=right;points=[];portConstraint=eastwest;" parent="1kkV1kS8Yblyq-Pat1bP-71" vertex="1">
          <mxGeometry y="20" width="130" height="8" as="geometry" />
        </mxCell>
        <mxCell id="1kkV1kS8Yblyq-Pat1bP-75" value="." style="html=1;align=center;spacingLeft=4;verticalAlign=top;strokeColor=none;fillColor=none;" parent="1kkV1kS8Yblyq-Pat1bP-71" vertex="1">
          <mxGeometry y="28" width="130" height="25" as="geometry" />
        </mxCell>
        <mxCell id="1kkV1kS8Yblyq-Pat1bP-76" value="" style="fontStyle=1;align=center;verticalAlign=top;childLayout=stackLayout;horizontal=1;horizontalStack=0;resizeParent=1;resizeParentMax=0;resizeLast=0;marginBottom=0;strokeColor=#d6b656;strokeWidth=2;fillColor=none;" parent="1kkV1kS8Yblyq-Pat1bP-4" vertex="1">
          <mxGeometry x="290" y="210" width="130" height="53" as="geometry" />
        </mxCell>
        <mxCell id="1kkV1kS8Yblyq-Pat1bP-77" value="Tenancy Profile Mgmt" style="html=1;align=left;spacingLeft=4;verticalAlign=middle;strokeColor=none;fillColor=none;fontStyle=1" parent="1kkV1kS8Yblyq-Pat1bP-76" vertex="1">
          <mxGeometry width="130" height="20" as="geometry" />
        </mxCell>
        <mxCell id="1kkV1kS8Yblyq-Pat1bP-78" value="" style="shape=ellipse;" parent="1kkV1kS8Yblyq-Pat1bP-77" vertex="1">
          <mxGeometry x="1" width="20" height="16" relative="1" as="geometry">
            <mxPoint x="-25" y="7" as="offset" />
          </mxGeometry>
        </mxCell>
        <mxCell id="1kkV1kS8Yblyq-Pat1bP-79" value="" style="line;strokeWidth=1;fillColor=none;align=left;verticalAlign=middle;spacingTop=-1;spacingLeft=3;spacingRight=3;rotatable=0;labelPosition=right;points=[];portConstraint=eastwest;" parent="1kkV1kS8Yblyq-Pat1bP-76" vertex="1">
          <mxGeometry y="20" width="130" height="8" as="geometry" />
        </mxCell>
        <mxCell id="1kkV1kS8Yblyq-Pat1bP-80" value="." style="html=1;align=center;spacingLeft=4;verticalAlign=top;strokeColor=none;fillColor=none;" parent="1kkV1kS8Yblyq-Pat1bP-76" vertex="1">
          <mxGeometry y="28" width="130" height="25" as="geometry" />
        </mxCell>
        <mxCell id="1kkV1kS8Yblyq-Pat1bP-81" value="" style="fontStyle=1;align=center;verticalAlign=top;childLayout=stackLayout;horizontal=1;horizontalStack=0;resizeParent=1;resizeParentMax=0;resizeLast=0;marginBottom=0;strokeColor=#d6b656;strokeWidth=2;fillColor=none;" parent="1kkV1kS8Yblyq-Pat1bP-4" vertex="1">
          <mxGeometry x="10" y="390" width="130" height="53" as="geometry" />
        </mxCell>
        <mxCell id="1kkV1kS8Yblyq-Pat1bP-82" value="Country of Origin/&lt;br&gt;Embargo Mgmt" style="html=1;align=left;spacingLeft=4;verticalAlign=middle;strokeColor=none;fillColor=none;fontStyle=1" parent="1kkV1kS8Yblyq-Pat1bP-81" vertex="1">
          <mxGeometry width="130" height="20" as="geometry" />
        </mxCell>
        <mxCell id="1kkV1kS8Yblyq-Pat1bP-83" value="" style="shape=ellipse;" parent="1kkV1kS8Yblyq-Pat1bP-82" vertex="1">
          <mxGeometry x="1" width="20" height="16" relative="1" as="geometry">
            <mxPoint x="-25" y="7" as="offset" />
          </mxGeometry>
        </mxCell>
        <mxCell id="1kkV1kS8Yblyq-Pat1bP-84" value="" style="line;strokeWidth=1;fillColor=none;align=left;verticalAlign=middle;spacingTop=-1;spacingLeft=3;spacingRight=3;rotatable=0;labelPosition=right;points=[];portConstraint=eastwest;" parent="1kkV1kS8Yblyq-Pat1bP-81" vertex="1">
          <mxGeometry y="20" width="130" height="8" as="geometry" />
        </mxCell>
        <mxCell id="1kkV1kS8Yblyq-Pat1bP-85" value="." style="html=1;align=center;spacingLeft=4;verticalAlign=top;strokeColor=none;fillColor=none;" parent="1kkV1kS8Yblyq-Pat1bP-81" vertex="1">
          <mxGeometry y="28" width="130" height="25" as="geometry" />
        </mxCell>
        <mxCell id="1kkV1kS8Yblyq-Pat1bP-86" value="" style="fontStyle=1;align=center;verticalAlign=top;childLayout=stackLayout;horizontal=1;horizontalStack=0;resizeParent=1;resizeParentMax=0;resizeLast=0;marginBottom=0;strokeColor=#d6b656;strokeWidth=2;fillColor=none;" parent="1kkV1kS8Yblyq-Pat1bP-4" vertex="1">
          <mxGeometry x="150" y="450" width="130" height="53" as="geometry" />
        </mxCell>
        <mxCell id="1kkV1kS8Yblyq-Pat1bP-87" value="Module &lt;br&gt;Permission Mgmt" style="html=1;align=left;spacingLeft=4;verticalAlign=middle;strokeColor=none;fillColor=none;fontStyle=1" parent="1kkV1kS8Yblyq-Pat1bP-86" vertex="1">
          <mxGeometry width="130" height="20" as="geometry" />
        </mxCell>
        <mxCell id="1kkV1kS8Yblyq-Pat1bP-88" value="" style="shape=ellipse;" parent="1kkV1kS8Yblyq-Pat1bP-87" vertex="1">
          <mxGeometry x="1" width="20" height="16" relative="1" as="geometry">
            <mxPoint x="-25" y="7" as="offset" />
          </mxGeometry>
        </mxCell>
        <mxCell id="1kkV1kS8Yblyq-Pat1bP-89" value="" style="line;strokeWidth=1;fillColor=none;align=left;verticalAlign=middle;spacingTop=-1;spacingLeft=3;spacingRight=3;rotatable=0;labelPosition=right;points=[];portConstraint=eastwest;" parent="1kkV1kS8Yblyq-Pat1bP-86" vertex="1">
          <mxGeometry y="20" width="130" height="8" as="geometry" />
        </mxCell>
        <mxCell id="1kkV1kS8Yblyq-Pat1bP-90" value="." style="html=1;align=center;spacingLeft=4;verticalAlign=top;strokeColor=none;fillColor=none;" parent="1kkV1kS8Yblyq-Pat1bP-86" vertex="1">
          <mxGeometry y="28" width="130" height="25" as="geometry" />
        </mxCell>
        <mxCell id="1kkV1kS8Yblyq-Pat1bP-91" value="" style="fontStyle=1;align=center;verticalAlign=top;childLayout=stackLayout;horizontal=1;horizontalStack=0;resizeParent=1;resizeParentMax=0;resizeLast=0;marginBottom=0;strokeColor=#d6b656;strokeWidth=2;fillColor=none;" parent="1kkV1kS8Yblyq-Pat1bP-4" vertex="1">
          <mxGeometry x="10" y="450" width="130" height="53" as="geometry" />
        </mxCell>
        <mxCell id="1kkV1kS8Yblyq-Pat1bP-92" value="Functionality&lt;br&gt;Module Mgmt" style="html=1;align=left;spacingLeft=4;verticalAlign=middle;strokeColor=none;fillColor=none;fontStyle=1" parent="1kkV1kS8Yblyq-Pat1bP-91" vertex="1">
          <mxGeometry width="130" height="20" as="geometry" />
        </mxCell>
        <mxCell id="1kkV1kS8Yblyq-Pat1bP-93" value="" style="shape=ellipse;" parent="1kkV1kS8Yblyq-Pat1bP-92" vertex="1">
          <mxGeometry x="1" width="20" height="16" relative="1" as="geometry">
            <mxPoint x="-25" y="7" as="offset" />
          </mxGeometry>
        </mxCell>
        <mxCell id="1kkV1kS8Yblyq-Pat1bP-94" value="" style="line;strokeWidth=1;fillColor=none;align=left;verticalAlign=middle;spacingTop=-1;spacingLeft=3;spacingRight=3;rotatable=0;labelPosition=right;points=[];portConstraint=eastwest;" parent="1kkV1kS8Yblyq-Pat1bP-91" vertex="1">
          <mxGeometry y="20" width="130" height="8" as="geometry" />
        </mxCell>
        <mxCell id="1kkV1kS8Yblyq-Pat1bP-95" value="." style="html=1;align=center;spacingLeft=4;verticalAlign=top;strokeColor=none;fillColor=none;" parent="1kkV1kS8Yblyq-Pat1bP-91" vertex="1">
          <mxGeometry y="28" width="130" height="25" as="geometry" />
        </mxCell>
        <mxCell id="1kkV1kS8Yblyq-Pat1bP-96" value="" style="fontStyle=1;align=center;verticalAlign=top;childLayout=stackLayout;horizontal=1;horizontalStack=0;resizeParent=1;resizeParentMax=0;resizeLast=0;marginBottom=0;strokeColor=#d6b656;strokeWidth=2;fillColor=none;" parent="1kkV1kS8Yblyq-Pat1bP-4" vertex="1">
          <mxGeometry x="150" y="390" width="130" height="53" as="geometry" />
        </mxCell>
        <mxCell id="1kkV1kS8Yblyq-Pat1bP-97" value="Group Role &amp;amp; &lt;br&gt;Permissions Mgmt" style="html=1;align=left;spacingLeft=4;verticalAlign=middle;strokeColor=none;fillColor=none;fontStyle=1" parent="1kkV1kS8Yblyq-Pat1bP-96" vertex="1">
          <mxGeometry width="130" height="20" as="geometry" />
        </mxCell>
        <mxCell id="1kkV1kS8Yblyq-Pat1bP-98" value="" style="shape=ellipse;" parent="1kkV1kS8Yblyq-Pat1bP-97" vertex="1">
          <mxGeometry x="1" width="20" height="16" relative="1" as="geometry">
            <mxPoint x="-25" y="7" as="offset" />
          </mxGeometry>
        </mxCell>
        <mxCell id="1kkV1kS8Yblyq-Pat1bP-99" value="" style="line;strokeWidth=1;fillColor=none;align=left;verticalAlign=middle;spacingTop=-1;spacingLeft=3;spacingRight=3;rotatable=0;labelPosition=right;points=[];portConstraint=eastwest;" parent="1kkV1kS8Yblyq-Pat1bP-96" vertex="1">
          <mxGeometry y="20" width="130" height="8" as="geometry" />
        </mxCell>
        <mxCell id="1kkV1kS8Yblyq-Pat1bP-100" value="." style="html=1;align=center;spacingLeft=4;verticalAlign=top;strokeColor=none;fillColor=none;" parent="1kkV1kS8Yblyq-Pat1bP-96" vertex="1">
          <mxGeometry y="28" width="130" height="25" as="geometry" />
        </mxCell>
        <mxCell id="1kkV1kS8Yblyq-Pat1bP-101" value="" style="fontStyle=1;align=center;verticalAlign=top;childLayout=stackLayout;horizontal=1;horizontalStack=0;resizeParent=1;resizeParentMax=0;resizeLast=0;marginBottom=0;strokeColor=#d6b656;strokeWidth=2;fillColor=none;" parent="1kkV1kS8Yblyq-Pat1bP-4" vertex="1">
          <mxGeometry x="290" y="270" width="130" height="53" as="geometry" />
        </mxCell>
        <mxCell id="1kkV1kS8Yblyq-Pat1bP-102" value="Media/Metadata&lt;br&gt;&amp;nbsp;Mgmt" style="html=1;align=left;spacingLeft=4;verticalAlign=middle;strokeColor=none;fillColor=none;fontStyle=1" parent="1kkV1kS8Yblyq-Pat1bP-101" vertex="1">
          <mxGeometry width="130" height="20" as="geometry" />
        </mxCell>
        <mxCell id="1kkV1kS8Yblyq-Pat1bP-103" value="" style="shape=ellipse;" parent="1kkV1kS8Yblyq-Pat1bP-102" vertex="1">
          <mxGeometry x="1" width="20" height="16" relative="1" as="geometry">
            <mxPoint x="-25" y="7" as="offset" />
          </mxGeometry>
        </mxCell>
        <mxCell id="1kkV1kS8Yblyq-Pat1bP-104" value="" style="line;strokeWidth=1;fillColor=none;align=left;verticalAlign=middle;spacingTop=-1;spacingLeft=3;spacingRight=3;rotatable=0;labelPosition=right;points=[];portConstraint=eastwest;" parent="1kkV1kS8Yblyq-Pat1bP-101" vertex="1">
          <mxGeometry y="20" width="130" height="8" as="geometry" />
        </mxCell>
        <mxCell id="1kkV1kS8Yblyq-Pat1bP-105" value="." style="html=1;align=center;spacingLeft=4;verticalAlign=top;strokeColor=none;fillColor=none;" parent="1kkV1kS8Yblyq-Pat1bP-101" vertex="1">
          <mxGeometry y="28" width="130" height="25" as="geometry" />
        </mxCell>
        <mxCell id="1kkV1kS8Yblyq-Pat1bP-106" value="" style="fontStyle=1;align=center;verticalAlign=top;childLayout=stackLayout;horizontal=1;horizontalStack=0;resizeParent=1;resizeParentMax=0;resizeLast=0;marginBottom=0;strokeColor=#d6b656;strokeWidth=2;fillColor=none;" parent="1kkV1kS8Yblyq-Pat1bP-4" vertex="1">
          <mxGeometry x="290" y="330" width="130" height="53" as="geometry" />
        </mxCell>
        <mxCell id="1kkV1kS8Yblyq-Pat1bP-107" value="Search" style="html=1;align=left;spacingLeft=4;verticalAlign=middle;strokeColor=none;fillColor=none;fontStyle=1" parent="1kkV1kS8Yblyq-Pat1bP-106" vertex="1">
          <mxGeometry width="130" height="20" as="geometry" />
        </mxCell>
        <mxCell id="1kkV1kS8Yblyq-Pat1bP-108" value="" style="shape=ellipse;" parent="1kkV1kS8Yblyq-Pat1bP-107" vertex="1">
          <mxGeometry x="1" width="20" height="16" relative="1" as="geometry">
            <mxPoint x="-25" y="7" as="offset" />
          </mxGeometry>
        </mxCell>
        <mxCell id="1kkV1kS8Yblyq-Pat1bP-109" value="" style="line;strokeWidth=1;fillColor=none;align=left;verticalAlign=middle;spacingTop=-1;spacingLeft=3;spacingRight=3;rotatable=0;labelPosition=right;points=[];portConstraint=eastwest;" parent="1kkV1kS8Yblyq-Pat1bP-106" vertex="1">
          <mxGeometry y="20" width="130" height="8" as="geometry" />
        </mxCell>
        <mxCell id="1kkV1kS8Yblyq-Pat1bP-110" value="." style="html=1;align=center;spacingLeft=4;verticalAlign=top;strokeColor=none;fillColor=none;" parent="1kkV1kS8Yblyq-Pat1bP-106" vertex="1">
          <mxGeometry y="28" width="130" height="25" as="geometry" />
        </mxCell>
        <mxCell id="1kkV1kS8Yblyq-Pat1bP-111" value="" style="fontStyle=1;align=center;verticalAlign=top;childLayout=stackLayout;horizontal=1;horizontalStack=0;resizeParent=1;resizeParentMax=0;resizeLast=0;marginBottom=0;strokeColor=#d6b656;strokeWidth=2;fillColor=none;" parent="1kkV1kS8Yblyq-Pat1bP-4" vertex="1">
          <mxGeometry x="150" y="330" width="130" height="53" as="geometry" />
        </mxCell>
        <mxCell id="1kkV1kS8Yblyq-Pat1bP-112" value="Notification Mgmt" style="html=1;align=left;spacingLeft=4;verticalAlign=middle;strokeColor=none;fillColor=none;fontStyle=1" parent="1kkV1kS8Yblyq-Pat1bP-111" vertex="1">
          <mxGeometry width="130" height="20" as="geometry" />
        </mxCell>
        <mxCell id="1kkV1kS8Yblyq-Pat1bP-113" value="" style="shape=ellipse;" parent="1kkV1kS8Yblyq-Pat1bP-112" vertex="1">
          <mxGeometry x="1" width="20" height="16" relative="1" as="geometry">
            <mxPoint x="-25" y="7" as="offset" />
          </mxGeometry>
        </mxCell>
        <mxCell id="1kkV1kS8Yblyq-Pat1bP-114" value="" style="line;strokeWidth=1;fillColor=none;align=left;verticalAlign=middle;spacingTop=-1;spacingLeft=3;spacingRight=3;rotatable=0;labelPosition=right;points=[];portConstraint=eastwest;" parent="1kkV1kS8Yblyq-Pat1bP-111" vertex="1">
          <mxGeometry y="20" width="130" height="8" as="geometry" />
        </mxCell>
        <mxCell id="1kkV1kS8Yblyq-Pat1bP-115" value="." style="html=1;align=center;spacingLeft=4;verticalAlign=top;strokeColor=none;fillColor=none;" parent="1kkV1kS8Yblyq-Pat1bP-111" vertex="1">
          <mxGeometry y="28" width="130" height="25" as="geometry" />
        </mxCell>
        <mxCell id="1kkV1kS8Yblyq-Pat1bP-116" value="" style="fontStyle=1;align=center;verticalAlign=top;childLayout=stackLayout;horizontal=1;horizontalStack=0;resizeParent=1;resizeParentMax=0;resizeLast=0;marginBottom=0;strokeColor=#d6b656;strokeWidth=2;fillColor=none;" parent="1kkV1kS8Yblyq-Pat1bP-1" vertex="1">
          <mxGeometry x="270" y="160" width="130" height="53" as="geometry" />
        </mxCell>
        <mxCell id="1kkV1kS8Yblyq-Pat1bP-117" value="Metrics &amp;amp; Alert Mgmt" style="html=1;align=left;spacingLeft=4;verticalAlign=middle;strokeColor=none;fillColor=none;fontStyle=1" parent="1kkV1kS8Yblyq-Pat1bP-116" vertex="1">
          <mxGeometry width="130" height="20" as="geometry" />
        </mxCell>
        <mxCell id="1kkV1kS8Yblyq-Pat1bP-118" value="" style="shape=ellipse;" parent="1kkV1kS8Yblyq-Pat1bP-117" vertex="1">
          <mxGeometry x="1" width="20" height="16" relative="1" as="geometry">
            <mxPoint x="-25" y="7" as="offset" />
          </mxGeometry>
        </mxCell>
        <mxCell id="1kkV1kS8Yblyq-Pat1bP-119" value="" style="line;strokeWidth=1;fillColor=none;align=left;verticalAlign=middle;spacingTop=-1;spacingLeft=3;spacingRight=3;rotatable=0;labelPosition=right;points=[];portConstraint=eastwest;" parent="1kkV1kS8Yblyq-Pat1bP-116" vertex="1">
          <mxGeometry y="20" width="130" height="8" as="geometry" />
        </mxCell>
        <mxCell id="1kkV1kS8Yblyq-Pat1bP-120" value="." style="html=1;align=center;spacingLeft=4;verticalAlign=top;strokeColor=none;fillColor=none;" parent="1kkV1kS8Yblyq-Pat1bP-116" vertex="1">
          <mxGeometry y="28" width="130" height="25" as="geometry" />
        </mxCell>
        <mxCell id="o-E-SQqOdctGUzHK413I-0" value="Title" parent="1kkV1kS8Yblyq-Pat1bP-0" visible="0" />
        <mxCell id="1kkV1kS8Yblyq-Pat1bP-2" value="&lt;font style=&quot;font-size: 12px&quot;&gt;Diagram: Base System Logical Module - Functionality Groups - High Level&lt;/font&gt;" style="text;strokeColor=none;fillColor=none;html=1;fontSize=12;fontStyle=2;verticalAlign=middle;align=left;shadow=0;glass=0;comic=0;opacity=30;fontColor=#808080;strokeWidth=1;" parent="o-E-SQqOdctGUzHK413I-0" vertex="1">
          <mxGeometry x="120" y="660" width="520" height="20" as="geometry" />
        </mxCell>
        <mxCell id="o-E-SQqOdctGUzHK413I-1" value="Information" parent="1kkV1kS8Yblyq-Pat1bP-0" visible="0" />
        <UserObject label="" tooltip="ABOUT&#xa;&#xa;The Base Module provides Functionality that is pretty much common across all mature applications, from Diagnostics, through information about the system (who paid for it/who built it, who is supplying it/the reseller, the system name), through to the current Tenancy and User, its Media and what people think of it. &#xa;&#xa;&#xa;&#xa;Secondary Modules build on top of the Core module, adding Business Domain Specific functionality (described later)." id="1kkV1kS8Yblyq-Pat1bP-3">
          <mxCell style="shape=image;html=1;verticalAlign=top;verticalLabelPosition=bottom;labelBackgroundColor=#ffffff;imageAspect=0;aspect=fixed;image=https://cdn1.iconfinder.com/data/icons/hawcons/32/699014-icon-28-information-128.png;shadow=0;dashed=0;fontFamily=Helvetica;fontSize=12;fontColor=#000000;align=center;strokeColor=#000000;fillColor=#505050;dashPattern=1 1;" parent="o-E-SQqOdctGUzHK413I-1" vertex="1">
            <mxGeometry x="660" y="660" width="20" height="20" as="geometry" />
          </mxCell>
        </UserObject>
      </root>
    </mxGraphModel>
  </diagram>
</mxfile>
